<?xml version="1.0" encoding="UTF-8" standalone="no"?>
<!-- Created with Inkscape (http://www.inkscape.org/) -->

<svg
   xmlns:dc="http://purl.org/dc/elements/1.1/"
   xmlns:cc="http://creativecommons.org/ns#"
   xmlns:rdf="http://www.w3.org/1999/02/22-rdf-syntax-ns#"
   xmlns:svg="http://www.w3.org/2000/svg"
   xmlns="http://www.w3.org/2000/svg"
   xmlns:sodipodi="http://sodipodi.sourceforge.net/DTD/sodipodi-0.dtd"
   xmlns:inkscape="http://www.inkscape.org/namespaces/inkscape"
   width="440"
   height="385"
   id="svg5387"
   version="1.1"
   inkscape:version="0.48.4 r9939"
   sodipodi:docname="dove_pixel_art.svg">
  <defs
     id="defs5389" />
  <sodipodi:namedview
     id="base"
     pagecolor="#ffffff"
     bordercolor="#666666"
     borderopacity="1.0"
     inkscape:pageopacity="0.0"
     inkscape:pageshadow="2"
     inkscape:zoom="0.24748737"
     inkscape:cx="401.5779"
     inkscape:cy="198.09819"
     inkscape:document-units="px"
     inkscape:current-layer="layer1"
     showgrid="true"
     inkscape:window-width="1280"
     inkscape:window-height="749"
     inkscape:window-x="0"
     inkscape:window-y="26"
     inkscape:window-maximized="1"
     inkscape:snap-bbox="true"
     fit-margin-top="0"
     fit-margin-left="0"
     fit-margin-right="0"
     fit-margin-bottom="0">
    <inkscape:grid
       type="xygrid"
       id="grid5395"
       empspacing="5"
       visible="true"
       enabled="true"
       snapvisiblegridlinesonly="true"
       originx="320px"
       originy="152.51282px" />
  </sodipodi:namedview>
  <metadata
     id="metadata5392">
    <rdf:RDF>
      <cc:Work
         rdf:about="">
        <dc:format>image/svg+xml</dc:format>
        <dc:type
           rdf:resource="http://purl.org/dc/dcmitype/StillImage" />
        <dc:title></dc:title>
      </cc:Work>
    </rdf:RDF>
  </metadata>
  <g
     inkscape:label="Layer 1"
     inkscape:groupmode="layer"
     id="layer1"
     transform="translate(320,-819.875)">
    <path
       style="fill:#ffffff;stroke:none"
       d="m -240,872.375 0,20 20,0 0,40 20,0 0,-40 100,0 0,-20 -140,0 z m 140,20 0,20 20,0 0,-20 -20,0 z m 20,20 0,60 20,0 20,0 0,-20 -20,0 0,-40 -20,0 z m 40,40 40,0 0,-20 -40,0 0,20 z m 40,0 0,20 0,20 20,0 0,-20 20,0 0,-20 -40,0 z m 0,40 -20,0 0,40 20,0 0,-40 z m 0,40 0,20 40,0 0,80 -40,0 0,20 60,0 0,-20 0,-100 -60,0 z m 0,100 0,-20 -20,0 0,20 20,0 z m -20,-20 0,-20 -20,0 0,20 20,0 z m -20,-20 0,-20 -100,0 0,20 100,0 z m -100,0 -20,0 0,20 20,0 0,-20 z m -20,20 -20,0 0,20 20,0 0,-20 z m -20,20 -40,0 0,20 40,0 0,-20 z m -40,0 0,-40 -20,0 0,40 20,0 z m -20,-40 0,-20 0,-20 80,0 0,-20 -100,0 0,20 0,20 0,20 20,0 z m 80,-60 20,0 0,-20 -20,0 0,20 z m 20,-20 20,0 0,-20 -20,0 0,20 z m 0,-20 0,-20 -20,0 0,20 20,0 z m -20,-20 0,-20 -20,0 0,20 20,0 z m -20,-20 0,-20 -20,0 0,20 20,0 z"
       id="rect5408"
       inkscape:connector-curvature="0" />
  </g>
</svg>
